<svg width="197" height="53" viewBox="0 0 197 53" fill="none" xmlns="http://www.w3.org/2000/svg">
<rect width="197" height="53" fill="white"/>
<g clip-path="url(#clip0_13_10)">
<rect width="375" height="812" transform="translate(-90 -622)" fill="#FDFEFF"/>
<rect opacity="0.588123" x="-90" y="-622" width="375" height="982" fill="url(#paint0_linear_13_10)"/>
<g filter="url(#filter0_d_13_10)">
</g>
<rect opacity="0.588123" x="-90" y="-517" width="375" height="877" fill="url(#paint1_linear_13_10)"/>
<path d="M-90 -652H285V384C285 405.539 267.539 423 246 423H-51C-72.5391 423 -90 405.539 -90 384V-652Z" fill="#F5F7FB"/>
<g clip-path="url(#clip1_13_10)">
<g clip-path="url(#clip2_13_10)">
<rect x="1.25" y="1" width="194" height="50.84" rx="20" fill="#EA9975"/>
<rect x="1.25" y="1" width="96" height="50.84" rx="20" fill="#EA9975"/>
<mask id="mask0_13_10" style="mask-type:luminance" maskUnits="userSpaceOnUse" x="1" y="1" width="97" height="51">
<rect x="1.25" y="1" width="96" height="50.84" rx="20" fill="white"/>
</mask>
<g mask="url(#mask0_13_10)">
</g>
</g>
<rect opacity="0.393996" x="1.25" width="194" height="46" rx="20" fill="#FBC399"/>
<rect x="1.25" width="96" height="46" rx="20" fill="#FBC399"/>
<mask id="mask1_13_10" style="mask-type:luminance" maskUnits="userSpaceOnUse" x="1" y="0" width="97" height="46">
<rect x="1.25" width="96" height="46" rx="20" fill="white"/>
</mask>
<g mask="url(#mask1_13_10)">
</g>
</g>
<path d="M77.296 28.16C76.2293 28.16 75.344 28.0107 74.64 27.712C73.936 27.4027 73.4027 27.0027 73.04 26.512C72.6773 26.0213 72.4853 25.4987 72.464 24.944C72.464 24.8587 72.496 24.784 72.56 24.72C72.6347 24.6453 72.72 24.608 72.816 24.608H74.832C74.9813 24.608 75.0933 24.6347 75.168 24.688C75.2533 24.7413 75.328 24.8107 75.392 24.896C75.4773 25.056 75.5947 25.2107 75.744 25.36C75.904 25.5093 76.1067 25.632 76.352 25.728C76.608 25.8133 76.9227 25.856 77.296 25.856C77.9147 25.856 78.3787 25.76 78.688 25.568C79.008 25.376 79.168 25.1147 79.168 24.784C79.168 24.5493 79.0827 24.3573 78.912 24.208C78.7413 24.048 78.464 23.9093 78.08 23.792C77.7067 23.664 77.2053 23.536 76.576 23.408C75.7653 23.2373 75.072 23.0187 74.496 22.752C73.9307 22.4747 73.4987 22.1173 73.2 21.68C72.9013 21.232 72.752 20.6773 72.752 20.016C72.752 19.3653 72.9333 18.784 73.296 18.272C73.6693 17.76 74.1867 17.36 74.848 17.072C75.5093 16.784 76.2933 16.64 77.2 16.64C77.936 16.64 78.5813 16.736 79.136 16.928C79.7013 17.12 80.176 17.376 80.56 17.696C80.944 18.016 81.232 18.3573 81.424 18.72C81.6267 19.072 81.7333 19.4187 81.744 19.76C81.744 19.8453 81.712 19.9253 81.648 20C81.584 20.064 81.504 20.096 81.408 20.096H79.296C79.1787 20.096 79.0773 20.0747 78.992 20.032C78.9067 19.9893 78.832 19.92 78.768 19.824C78.704 19.5893 78.5333 19.3867 78.256 19.216C77.9893 19.0347 77.6373 18.944 77.2 18.944C76.7307 18.944 76.3627 19.0293 76.096 19.2C75.84 19.36 75.712 19.6107 75.712 19.952C75.712 20.1653 75.7813 20.352 75.92 20.512C76.0693 20.672 76.3093 20.8107 76.64 20.928C76.9813 21.0453 77.4453 21.168 78.032 21.296C79.0027 21.4773 79.7867 21.7067 80.384 21.984C80.9813 22.2507 81.4187 22.6027 81.696 23.04C81.9733 23.4667 82.112 24.0053 82.112 24.656C82.112 25.3813 81.904 26.0107 81.488 26.544C81.0827 27.0667 80.5173 27.4667 79.792 27.744C79.0667 28.0213 78.2347 28.16 77.296 28.16ZM86.4684 28C86.351 28 86.255 27.9627 86.1804 27.888C86.1057 27.8133 86.0684 27.7173 86.0684 27.6V19.312H83.2204C83.103 19.312 83.007 19.2747 82.9324 19.2C82.8577 19.1147 82.8204 19.0187 82.8204 18.912V17.2C82.8204 17.0827 82.8577 16.9867 82.9324 16.912C83.007 16.8373 83.103 16.8 83.2204 16.8H91.8284C91.9457 16.8 92.0417 16.8373 92.1164 16.912C92.191 16.9867 92.2284 17.0827 92.2284 17.2V18.912C92.2284 19.0187 92.191 19.1147 92.1164 19.2C92.0417 19.2747 91.9457 19.312 91.8284 19.312H88.9804V27.6C88.9804 27.7173 88.943 27.8133 88.8684 27.888C88.7937 27.9627 88.6977 28 88.5804 28H86.4684ZM91.9019 28C91.8165 28 91.7365 27.968 91.6619 27.904C91.5979 27.8293 91.5659 27.7493 91.5659 27.664C91.5659 27.6107 91.5712 27.5627 91.5819 27.52L95.3419 17.248C95.3739 17.1307 95.4379 17.0293 95.5339 16.944C95.6405 16.848 95.7845 16.8 95.9659 16.8H98.3339C98.5152 16.8 98.6539 16.848 98.7499 16.944C98.8565 17.0293 98.9259 17.1307 98.9579 17.248L102.702 27.52C102.723 27.5627 102.734 27.6107 102.734 27.664C102.734 27.7493 102.697 27.8293 102.622 27.904C102.558 27.968 102.478 28 102.382 28H100.414C100.254 28 100.131 27.9627 100.046 27.888C99.9712 27.8027 99.9232 27.728 99.9019 27.664L99.2779 26.032H95.0059L94.3979 27.664C94.3765 27.728 94.3285 27.8027 94.2539 27.888C94.1792 27.9627 94.0512 28 93.8699 28H91.9019ZM95.6619 23.728H98.6379L97.1339 19.504L95.6619 23.728ZM104.395 28C104.278 28 104.182 27.9627 104.107 27.888C104.032 27.8133 103.995 27.7173 103.995 27.6V17.2C103.995 17.0827 104.032 16.9867 104.107 16.912C104.182 16.8373 104.278 16.8 104.395 16.8H108.747C110.123 16.8 111.206 17.12 111.995 17.76C112.795 18.3893 113.195 19.2853 113.195 20.448C113.195 21.2053 113.008 21.8453 112.635 22.368C112.272 22.8907 111.792 23.2853 111.195 23.552L113.403 27.488C113.435 27.552 113.451 27.6107 113.451 27.664C113.451 27.7493 113.414 27.8293 113.339 27.904C113.275 27.968 113.195 28 113.099 28H110.987C110.784 28 110.635 27.952 110.539 27.856C110.443 27.7493 110.374 27.6533 110.331 27.568L108.507 24.048H106.859V27.6C106.859 27.7173 106.822 27.8133 106.747 27.888C106.672 27.9627 106.576 28 106.459 28H104.395ZM106.859 21.792H108.715C109.216 21.792 109.59 21.6693 109.835 21.424C110.091 21.1787 110.219 20.8427 110.219 20.416C110.219 20 110.096 19.664 109.851 19.408C109.616 19.152 109.238 19.024 108.715 19.024H106.859V21.792ZM117.812 28C117.695 28 117.599 27.9627 117.524 27.888C117.449 27.8133 117.412 27.7173 117.412 27.6V19.312H114.564C114.447 19.312 114.351 19.2747 114.276 19.2C114.201 19.1147 114.164 19.0187 114.164 18.912V17.2C114.164 17.0827 114.201 16.9867 114.276 16.912C114.351 16.8373 114.447 16.8 114.564 16.8H123.172C123.289 16.8 123.385 16.8373 123.46 16.912C123.535 16.9867 123.572 17.0827 123.572 17.2V18.912C123.572 19.0187 123.535 19.1147 123.46 19.2C123.385 19.2747 123.289 19.312 123.172 19.312H120.324V27.6C120.324 27.7173 120.287 27.8133 120.212 27.888C120.137 27.9627 120.041 28 119.924 28H117.812Z" fill="#B67C62"/>
</g>
<defs>
<filter id="filter0_d_13_10" x="155" y="-21" width="259" height="304" filterUnits="userSpaceOnUse" color-interpolation-filters="sRGB">
<feFlood flood-opacity="0" result="BackgroundImageFix"/>
<feColorMatrix in="SourceAlpha" type="matrix" values="0 0 0 0 0 0 0 0 0 0 0 0 0 0 0 0 0 0 127 0" result="hardAlpha"/>
<feOffset dy="32"/>
<feGaussianBlur stdDeviation="32"/>
<feColorMatrix type="matrix" values="0 0 0 0 0.690331 0 0 0 0 0.690331 0 0 0 0 0.690331 0 0 0 0.2 0"/>
<feBlend mode="normal" in2="BackgroundImageFix" result="effect1_dropShadow_13_10"/>
<feBlend mode="normal" in="SourceGraphic" in2="effect1_dropShadow_13_10" result="shape"/>
</filter>
<linearGradient id="paint0_linear_13_10" x1="-71.8718" y1="-532.617" x2="-71.8718" y2="354.44" gradientUnits="userSpaceOnUse">
<stop stop-color="#F5F8FA"/>
<stop offset="1" stop-color="#E3E7F0"/>
</linearGradient>
<linearGradient id="paint1_linear_13_10" x1="-71.8718" y1="-437.174" x2="-71.8718" y2="355.034" gradientUnits="userSpaceOnUse">
<stop stop-color="#696E72"/>
<stop offset="1"/>
</linearGradient>
<clipPath id="clip0_13_10">
<rect width="375" height="812" fill="white" transform="translate(-90 -622)"/>
</clipPath>
<clipPath id="clip1_13_10">
<rect width="196" height="53" fill="white" transform="translate(0.5)"/>
</clipPath>
<clipPath id="clip2_13_10">
<rect width="195" height="51" fill="white" transform="translate(1 1)"/>
</clipPath>
</defs>
</svg>
