<svg width="196" height="53" viewBox="0 0 196 53" fill="none" xmlns="http://www.w3.org/2000/svg">
<g clip-path="url(#clip0_19_3289)">
<g clip-path="url(#clip1_19_3289)">
<rect x="0.75" y="1" width="194" height="50.84" rx="20" fill="#EA9975"/>
<rect x="0.75" y="1" width="96" height="50.84" rx="20" fill="#EA9975"/>
<mask id="mask0_19_3289" style="mask-type:luminance" maskUnits="userSpaceOnUse" x="0" y="1" width="97" height="51">
<rect x="0.75" y="1" width="96" height="50.84" rx="20" fill="white"/>
</mask>
<g mask="url(#mask0_19_3289)">
</g>
</g>
<rect opacity="0.393996" x="0.75" width="194" height="46" rx="20" fill="#FBC399"/>
<rect x="0.75" width="96" height="46" rx="20" fill="#FBC399"/>
<mask id="mask1_19_3289" style="mask-type:luminance" maskUnits="userSpaceOnUse" x="0" y="0" width="97" height="46">
<rect x="0.75" width="96" height="46" rx="20" fill="white"/>
</mask>
<g mask="url(#mask1_19_3289)">
</g>
</g>
<path d="M62.5513 31C62.4339 31 62.3379 30.9627 62.2633 30.888C62.1886 30.8133 62.1513 30.7173 62.1513 30.6V20.2C62.1513 20.0827 62.1886 19.9867 62.2633 19.912C62.3379 19.8373 62.4339 19.8 62.5513 19.8H66.9033C68.2793 19.8 69.3619 20.12 70.1513 20.76C70.9513 21.3893 71.3513 22.2853 71.3513 23.448C71.3513 24.2053 71.1646 24.8453 70.7913 25.368C70.4286 25.8907 69.9486 26.2853 69.3513 26.552L71.5593 30.488C71.5913 30.552 71.6073 30.6107 71.6073 30.664C71.6073 30.7493 71.5699 30.8293 71.4953 30.904C71.4313 30.968 71.3513 31 71.2553 31H69.1433C68.9406 31 68.7913 30.952 68.6953 30.856C68.5993 30.7493 68.5299 30.6533 68.4873 30.568L66.6633 27.048H65.0153V30.6C65.0153 30.7173 64.9779 30.8133 64.9033 30.888C64.8286 30.9627 64.7326 31 64.6153 31H62.5513ZM65.0153 24.792H66.8713C67.3726 24.792 67.7459 24.6693 67.9913 24.424C68.2473 24.1787 68.3753 23.8427 68.3753 23.416C68.3753 23 68.2526 22.664 68.0073 22.408C67.7726 22.152 67.3939 22.024 66.8713 22.024H65.0153V24.792ZM73.6138 31C73.4964 31 73.4004 30.9627 73.3258 30.888C73.2511 30.8133 73.2138 30.7173 73.2138 30.6V20.2C73.2138 20.0827 73.2511 19.9867 73.3258 19.912C73.4004 19.8373 73.4964 19.8 73.6138 19.8H81.0858C81.2031 19.8 81.2991 19.8373 81.3738 19.912C81.4484 19.9867 81.4858 20.0827 81.4858 20.2V21.704C81.4858 21.8213 81.4484 21.9173 81.3738 21.992C81.2991 22.0667 81.2031 22.104 81.0858 22.104H75.9818V24.264H80.7338C80.8511 24.264 80.9471 24.3067 81.0218 24.392C81.0964 24.4667 81.1337 24.5627 81.1337 24.68V26.072C81.1337 26.1787 81.0964 26.2747 81.0218 26.36C80.9471 26.4347 80.8511 26.472 80.7338 26.472H75.9818V28.696H81.2138C81.3311 28.696 81.4271 28.7333 81.5017 28.808C81.5764 28.8827 81.6138 28.9787 81.6138 29.096V30.6C81.6138 30.7173 81.5764 30.8133 81.5017 30.888C81.4271 30.9627 81.3311 31 81.2138 31H73.6138ZM87.6085 31.16C86.5418 31.16 85.6565 31.0107 84.9525 30.712C84.2485 30.4027 83.7152 30.0027 83.3525 29.512C82.9898 29.0213 82.7978 28.4987 82.7765 27.944C82.7765 27.8587 82.8085 27.784 82.8725 27.72C82.9472 27.6453 83.0325 27.608 83.1285 27.608H85.1445C85.2938 27.608 85.4058 27.6347 85.4805 27.688C85.5658 27.7413 85.6405 27.8107 85.7045 27.896C85.7898 28.056 85.9072 28.2107 86.0565 28.36C86.2165 28.5093 86.4192 28.632 86.6645 28.728C86.9205 28.8133 87.2352 28.856 87.6085 28.856C88.2272 28.856 88.6912 28.76 89.0005 28.568C89.3205 28.376 89.4805 28.1147 89.4805 27.784C89.4805 27.5493 89.3952 27.3573 89.2245 27.208C89.0538 27.048 88.7765 26.9093 88.3925 26.792C88.0192 26.664 87.5178 26.536 86.8885 26.408C86.0778 26.2373 85.3845 26.0187 84.8085 25.752C84.2432 25.4747 83.8112 25.1173 83.5125 24.68C83.2138 24.232 83.0645 23.6773 83.0645 23.016C83.0645 22.3653 83.2458 21.784 83.6085 21.272C83.9818 20.76 84.4992 20.36 85.1605 20.072C85.8218 19.784 86.6058 19.64 87.5125 19.64C88.2485 19.64 88.8938 19.736 89.4485 19.928C90.0138 20.12 90.4885 20.376 90.8725 20.696C91.2565 21.016 91.5445 21.3573 91.7365 21.72C91.9392 22.072 92.0458 22.4187 92.0565 22.76C92.0565 22.8453 92.0245 22.9253 91.9605 23C91.8965 23.064 91.8165 23.096 91.7205 23.096H89.6085C89.4912 23.096 89.3898 23.0747 89.3045 23.032C89.2192 22.9893 89.1445 22.92 89.0805 22.824C89.0165 22.5893 88.8458 22.3867 88.5685 22.216C88.3018 22.0347 87.9498 21.944 87.5125 21.944C87.0432 21.944 86.6752 22.0293 86.4085 22.2C86.1525 22.36 86.0245 22.6107 86.0245 22.952C86.0245 23.1653 86.0938 23.352 86.2325 23.512C86.3818 23.672 86.6218 23.8107 86.9525 23.928C87.2938 24.0453 87.7578 24.168 88.3445 24.296C89.3152 24.4773 90.0992 24.7067 90.6965 24.984C91.2938 25.2507 91.7312 25.6027 92.0085 26.04C92.2858 26.4667 92.4245 27.0053 92.4245 27.656C92.4245 28.3813 92.2165 29.0107 91.8005 29.544C91.3952 30.0667 90.8298 30.4667 90.1045 30.744C89.3792 31.0213 88.5472 31.16 87.6085 31.16ZM98.7143 31.16C97.7543 31.16 96.9116 31.0053 96.1863 30.696C95.4716 30.376 94.9169 29.8907 94.5223 29.24C94.1276 28.5787 93.9303 27.7413 93.9303 26.728V20.2C93.9303 20.0827 93.9676 19.9867 94.0423 19.912C94.1169 19.8373 94.2129 19.8 94.3303 19.8H96.3943C96.5116 19.8 96.6076 19.8373 96.6823 19.912C96.7569 19.9867 96.7943 20.0827 96.7943 20.2V26.712C96.7943 27.4053 96.9596 27.928 97.2903 28.28C97.6316 28.6213 98.1063 28.792 98.7143 28.792C99.3116 28.792 99.7756 28.6213 100.106 28.28C100.448 27.928 100.618 27.4053 100.618 26.712V20.2C100.618 20.0827 100.656 19.9867 100.73 19.912C100.816 19.8373 100.912 19.8 101.018 19.8H103.098C103.205 19.8 103.296 19.8373 103.37 19.912C103.456 19.9867 103.498 20.0827 103.498 20.2V26.728C103.498 27.7413 103.301 28.5787 102.906 29.24C102.512 29.8907 101.957 30.376 101.242 30.696C100.528 31.0053 99.6849 31.16 98.7143 31.16ZM106.02 31C105.903 31 105.807 30.9627 105.732 30.888C105.657 30.8133 105.62 30.7173 105.62 30.6V20.2C105.62 20.0827 105.657 19.9867 105.732 19.912C105.807 19.8373 105.903 19.8 106.02 19.8H108.132C108.239 19.8 108.329 19.8373 108.404 19.912C108.489 19.9867 108.532 20.0827 108.532 20.2V28.584H113.364C113.481 28.584 113.577 28.6267 113.652 28.712C113.737 28.7867 113.78 28.8827 113.78 29V30.6C113.78 30.7173 113.737 30.8133 113.652 30.888C113.577 30.9627 113.481 31 113.364 31H106.02ZM116.312 31C116.195 31 116.099 30.9627 116.024 30.888C115.949 30.8133 115.912 30.7173 115.912 30.6V22.312H113.064C112.947 22.312 112.851 22.2747 112.776 22.2C112.701 22.1147 112.664 22.0187 112.664 21.912V20.2C112.664 20.0827 112.701 19.9867 112.776 19.912C112.851 19.8373 112.947 19.8 113.064 19.8H121.672C121.789 19.8 121.885 19.8373 121.96 19.912C122.035 19.9867 122.072 20.0827 122.072 20.2V21.912C122.072 22.0187 122.035 22.1147 121.96 22.2C121.885 22.2747 121.789 22.312 121.672 22.312H118.824V30.6C118.824 30.7173 118.787 30.8133 118.712 30.888C118.637 30.9627 118.541 31 118.424 31H116.312ZM127.671 31.16C126.604 31.16 125.719 31.0107 125.015 30.712C124.311 30.4027 123.778 30.0027 123.415 29.512C123.052 29.0213 122.86 28.4987 122.839 27.944C122.839 27.8587 122.871 27.784 122.935 27.72C123.01 27.6453 123.095 27.608 123.191 27.608H125.207C125.356 27.608 125.468 27.6347 125.543 27.688C125.628 27.7413 125.703 27.8107 125.767 27.896C125.852 28.056 125.97 28.2107 126.119 28.36C126.279 28.5093 126.482 28.632 126.727 28.728C126.983 28.8133 127.298 28.856 127.671 28.856C128.29 28.856 128.754 28.76 129.063 28.568C129.383 28.376 129.543 28.1147 129.543 27.784C129.543 27.5493 129.458 27.3573 129.287 27.208C129.116 27.048 128.839 26.9093 128.455 26.792C128.082 26.664 127.58 26.536 126.951 26.408C126.14 26.2373 125.447 26.0187 124.871 25.752C124.306 25.4747 123.874 25.1173 123.575 24.68C123.276 24.232 123.127 23.6773 123.127 23.016C123.127 22.3653 123.308 21.784 123.671 21.272C124.044 20.76 124.562 20.36 125.223 20.072C125.884 19.784 126.668 19.64 127.575 19.64C128.311 19.64 128.956 19.736 129.511 19.928C130.076 20.12 130.551 20.376 130.935 20.696C131.319 21.016 131.607 21.3573 131.799 21.72C132.002 22.072 132.108 22.4187 132.119 22.76C132.119 22.8453 132.087 22.9253 132.023 23C131.959 23.064 131.879 23.096 131.783 23.096H129.671C129.554 23.096 129.452 23.0747 129.367 23.032C129.282 22.9893 129.207 22.92 129.143 22.824C129.079 22.5893 128.908 22.3867 128.631 22.216C128.364 22.0347 128.012 21.944 127.575 21.944C127.106 21.944 126.738 22.0293 126.471 22.2C126.215 22.36 126.087 22.6107 126.087 22.952C126.087 23.1653 126.156 23.352 126.295 23.512C126.444 23.672 126.684 23.8107 127.015 23.928C127.356 24.0453 127.82 24.168 128.407 24.296C129.378 24.4773 130.162 24.7067 130.759 24.984C131.356 25.2507 131.794 25.6027 132.071 26.04C132.348 26.4667 132.487 27.0053 132.487 27.656C132.487 28.3813 132.279 29.0107 131.863 29.544C131.458 30.0667 130.892 30.4667 130.167 30.744C129.442 31.0213 128.61 31.16 127.671 31.16Z" fill="#B67C62"/>
<defs>
<clipPath id="clip0_19_3289">
<rect width="196" height="53" fill="white"/>
</clipPath>
<clipPath id="clip1_19_3289">
<rect width="195" height="51" fill="white" transform="translate(0.5 1)"/>
</clipPath>
</defs>
</svg>
